PathFileType	4	(X/Y/Z)	/Users/itak/Documents/Research/Walk-IL/dataset/trc/00155_00007.trc
DataRate	CameraRate	NumFrames	NumMarkers	Units	OrigDataRate	OrigDataStartFrame	OrigNumFrames
100.000000	100.000000	4	53	mm	100.000000	353	565
Frame#	Time	RPSI			LPSI			L3			STRN			T10			C7			CLAV			RBAK			LBAK			LSHO			LUPA			LAEL			LAOL			LWTS			LWPS			LFRA			LIFD			LHPS			LHTS			RSHO			RUPA			RAEL			RAOL			RWTS			RWPS			RFRA			RIFD			RHTS			RHPS			RBHD			LFHD			RFHD			LBHD			LHIP			RHIP			RASI			LASI			LKNE			LTHI			LANK			LTIP			LTOE			LMT1			LMT5			LHEE			RKNE			RTHI			RANK			RTIP			RTOE			RMT1			RMT5			RHEE			
		X1	Y1	Z1	X2	Y2	Z2	X3	Y3	Z3	X4	Y4	Z4	X5	Y5	Z5	X6	Y6	Z6	X7	Y7	Z7	X8	Y8	Z8	X9	Y9	Z9	X10	Y10	Z10	X11	Y11	Z11	X12	Y12	Z12	X13	Y13	Z13	X14	Y14	Z14	X15	Y15	Z15	X16	Y16	Z16	X17	Y17	Z17	X18	Y18	Z18	X19	Y19	Z19	X20	Y20	Z20	X21	Y21	Z21	X22	Y22	Z22	X23	Y23	Z23	X24	Y24	Z24	X25	Y25	Z25	X26	Y26	Z26	X27	Y27	Z27	X28	Y28	Z28	X29	Y29	Z29	X30	Y30	Z30	X31	Y31	Z31	X32	Y32	Z32	X33	Y33	Z33	X34	Y34	Z34	X35	Y35	Z35	X36	Y36	Z36	X37	Y37	Z37	X38	Y38	Z38	X39	Y39	Z39	X40	Y40	Z40	X41	Y41	Z41	X42	Y42	Z42	X43	Y43	Z43	X44	Y44	Z44	X45	Y45	Z45	X46	Y46	Z46	X47	Y47	Z47	X48	Y48	Z48	X49	Y49	Z49	X50	Y50	Z50	X51	Y51	Z51	X52	Y52	Z52	X53	Y53	Z53	

354	3.53	6.056848526000977	1105.181274414062	-151.8249664306641	112.6777267456055	1108.861206054688	-229.32568359375	54.43243408203125	1144.246459960938	-199.5517883300781	172.4496765136719	1340.972534179688	-7.233449459075928	43.41150283813477	1295.018188476562	-231.4330139160156	70.54725646972656	1586.320068359375	-198.1793365478516	151.2319641113281	1476.062866210938	-36.12004470825195	-27.77210235595703	1399.788330078125	-209.3650665283203	157.8167572021484	1570.930908203125	-253.2060546875	257.2467041015625	1558.03662109375	-207.6674041748047	317.1781311035156	1430.89208984375	-257.9688110351562	362.01611328125	1215.399169921875	-250.2484436035156	281.2126159667969	1192.2734375	-279.3864135742188	402.2625122070312	978.2164916992188	-109.4958801269531	391.0885925292969	938.6301879882812	-188.7893524169922	386.5735168457031	1103.021484375	-225.5849151611328	413.8525085449219	791.4445190429688	-57.79137802124023	412.7402648925781	870.3486328125	-151.9391632080078	428.5414123535156	894.4505004882812	-88.58083343505859	-62.25244140625	1561.139770507812	-63.48241424560547	-125.1832809448242	1486.387329101562	-54.93047332763672	-147.1976165771484	1194.202270507812	-80.28543090820312	-55.28010559082031	1194.841430664062	-118.5431213378906	-85.63133239746094	942.0762329101562	33.79692840576172	-143.2411499023438	930.9181518554688	-28.06171607971191	-154.0326995849609	1121.22705078125	-57.19905471801758	-62.84795379638672	746.39501953125	35.74076080322266	-81.58635711669922	831.5963745117188	53.60502243041992	-132.3018035888672	828.3103637695312	0.3480384349822998	20.27571868896484	1757.976440429688	-116.1153411865234	204.8850860595703	1814.498168945312	-7.552150249481201	85.34014129638672	1808.8466796875	43.30322647094727	142.1270294189453	1768.835205078125	-173.9015350341797	255.3974456787109	1020.545959472656	-218.2432556152344	-20.03251266479492	1014.443176269531	22.1707592010498	67.71268463134766	1084.557373046875	54.41772842407227	281.8504333496094	1081.519775390625	-100.6119842529297	241.6218872070312	507.472412109375	-216.2689208984375	249.9561004638672	661.5828247070312	-231.0727691650391	11.09529781341553	133.7964324951172	-532.5903930664062	129.0513305664062	346.7693786621094	-412.5505981445312	65.21719360351562	29.72746658325195	-349.4820556640625	6.79198694229126	60.78643035888672	-380.9909057617188	75.42697906494141	48.00788879394531	-473.6324157714844	-63.05340576171875	190.1839141845703	-536.0899047851562	103.3236541748047	535.5823364257812	65.51365661621094	26.88628005981445	805.7680053710938	62.64319229125977	164.8975677490234	24.03207397460938	11.93799781799316	106.6650619506836	399.0691833496094	64.78712463378906	300.2361755371094	52.84816741943359	202.5643157958984	316.7165832519531	42.33506393432617	132.485595703125	196.5766143798828	41.88998794555664	142.2811584472656	187.6593170166016	27.14260673522949	-58.40828323364258	
355	3.54	10.32721042633057	1105.813598632812	-143.7257080078125	116.9501342773438	1109.057373046875	-221.1507415771484	58.94498062133789	1144.72900390625	-191.3404541015625	176.2958221435547	1342.184692382812	0.7765738964080811	47.42184829711914	1295.476684570312	-223.5035705566406	74.38731384277344	1586.916015625	-191.1075439453125	154.9921722412109	1477.192138671875	-28.53566360473633	-23.73168563842773	1400.262939453125	-201.7249908447266	161.7992706298828	1571.4658203125	-245.9307403564453	261.1891784667969	1558.826049804688	-200.1784057617188	321.06298828125	1431.576049804688	-250.2884674072266	365.069091796875	1215.909790039062	-243.0323791503906	284.1838684082031	1193.223266601562	-272.2521667480469	404.0584106445312	977.9964599609375	-102.9639587402344	392.9335632324219	938.7803955078125	-182.4376983642578	389.1321411132812	1103.334106445312	-218.6778411865234	413.6674194335938	790.77783203125	-51.93344879150391	413.8391723632812	870.1299438476562	-145.7418975830078	429.4899597167969	893.79443359375	-82.22123718261719	-58.48056793212891	1562.079223632812	-56.46533203125	-121.6016082763672	1487.356323242188	-47.83369064331055	-143.1371917724609	1194.920654296875	-72.182373046875	-51.28979110717773	1195.69873046875	-110.3628463745117	-80.76377105712891	944.0386962890625	44.17956924438477	-138.1823577880859	932.0198974609375	-17.71408271789551	-149.7239227294922	1121.940795898438	-48.59046173095703	-56.94972229003906	748.5008544921875	48.32598495483398	-76.26766204833984	833.8404541015625	65.15516662597656	-126.8135452270508	829.733154296875	11.75964832305908	23.93342208862305	1758.768676757812	-109.7700271606445	208.0887451171875	1815.775390625	-0.8396853804588318	88.42754364013672	1810.07421875	49.73929214477539	145.9831237792969	1769.696166992188	-167.3511657714844	259.7366333007812	1020.838684082031	-209.2396240234375	-16.04645919799805	1015.603820800781	29.88190078735352	71.48416137695312	1085.53173828125	62.80105590820312	285.8834228515625	1082.610717773438	-91.9283447265625	253.7534484863281	507.0719909667969	-200.6826934814453	259.53955078125	661.4266357421875	-217.7003631591797	19.05828666687012	143.2281188964844	-525.5838012695312	140.0108947753906	351.0059204101562	-399.5064392089844	68.18938446044922	28.95057487487793	-347.6737976074219	11.46828365325928	63.79378890991211	-377.16357421875	79.51844024658203	52.33207702636719	-470.1370239257812	-53.40666580200195	201.78857421875	-526.7927856445312	105.160285949707	535.3763427734375	69.95299530029297	30.49787712097168	806.1669921875	68.98728942871094	165.2231750488281	24.16982650756836	12.1820068359375	107.8863754272461	398.7530212402344	68.14356994628906	301.03125	50.60446166992188	203.4123077392578	317.35693359375	41.30060577392578	132.7074432373047	197.1035003662109	41.48276901245117	142.7389678955078	187.7145538330078	27.3565559387207	-58.23759078979492	
356	3.55	14.47491455078125	1106.339477539062	-135.8175659179688	121.1509552001953	1109.057495117188	-213.1658477783203	63.37982177734375	1145.03564453125	-183.3017120361328	180.0932312011719	1343.204223632812	8.639688491821289	51.3650016784668	1295.767700195312	-215.66748046875	78.13141632080078	1587.367919921875	-184.0765075683594	158.7098999023438	1478.125366210938	-21.0641040802002	-19.84324264526367	1400.609497070312	-194.1551513671875	165.6687316894531	1571.807861328125	-238.7447509765625	265.0528564453125	1559.299682617188	-192.8585662841797	324.8082885742188	1431.927734375	-242.7673950195312	368.178955078125	1216.13134765625	-235.8334808349609	287.2630004882812	1193.824462890625	-265.2180480957031	405.9080810546875	977.4789428710938	-96.49341583251953	394.9874572753906	938.6678466796875	-176.1721038818359	391.7961120605469	1103.37548828125	-211.7821960449219	413.64990234375	789.8267211914062	-46.22267913818359	415.1636962890625	869.6679077148438	-139.6459808349609	430.5340881347656	892.8646850585938	-75.93226623535156	-54.75173950195312	1562.869262695312	-49.42890930175781	-118.0435180664062	1488.166259765625	-40.68927001953125	-139.2225036621094	1195.470825195312	-63.93735885620117	-47.73451995849609	1196.47802734375	-102.2196273803711	-75.86029052734375	945.9190063476562	54.71072769165039	-133.1733703613281	932.9937744140625	-7.11400032043457	-145.4645080566406	1122.454345703125	-39.78255844116211	-51.03107070922852	750.5803833007812	61.14166259765625	-70.88219451904297	836.04345703125	76.92375946044922	-121.3353652954102	831.0516357421875	23.47108840942383	27.61890602111816	1759.370361328125	-103.5284042358398	211.2967224121094	1816.912841796875	5.780661582946777	91.51078796386719	1811.180786132812	56.07756423950195	149.8539886474609	1770.349609375	-160.8840942382812	263.9708862304688	1020.9052734375	-200.3762664794922	-12.12653827667236	1016.614440917969	37.54849624633789	75.28340148925781	1086.398681640625	71.01428985595703	289.89111328125	1083.538818359375	-83.41805267333984	265.8235168457031	506.7826538085938	-184.6815185546875	269.1285095214844	661.2595825195312	-204.1498870849609	27.70597839355469	152.5941314697266	-517.5792236328125	151.3639373779297	355.0070190429688	-385.8240051269531	72.82386779785156	28.40938568115234	-344.9733581542969	17.37530708312988	67.12552642822266	-372.3310546875	84.87816619873047	57.37456512451172	-465.7477416992188	-43.3303337097168	212.7741088867188	-516.5272216796875	106.5542984008789	535.0499267578125	74.06186676025391	33.90023422241211	806.4697875976562	75.0458984375	165.4994506835938	24.29422760009766	12.31804943084717	108.6980972290039	398.3497314453125	71.11013793945312	301.5077209472656	48.61882019042969	204.2266845703125	317.8260498046875	40.42549514770508	132.9913635253906	197.3987274169922	41.05097579956055	143.1036376953125	187.8211364746094	27.55104827880859	-58.13419342041016	
357	3.56	18.48504257202148	1106.792724609375	-128.1429138183594	125.3286743164062	1108.915283203125	-205.3823699951172	67.72991943359375	1145.203735351562	-175.4740600585938	183.8409881591797	1344.071533203125	16.34291458129883	55.25261688232422	1295.93310546875	-207.9552917480469	81.78639984130859	1587.708251953125	-177.1003875732422	162.3858947753906	1478.904296875	-13.72243404388428	-16.08265113830566	1400.86376953125	-186.6864318847656	169.4288024902344	1571.998168945312	-231.6612243652344	268.8431701660156	1559.507934570312	-185.7242279052734	328.4152526855469	1431.993408203125	-235.422607421875	371.3214111328125	1216.101196289062	-228.6545562744141	290.4114990234375	1194.1162109375	-258.2626953125	407.8013610839844	976.7000732421875	-90.10159301757812	397.1990661621094	938.3250732421875	-170.0094909667969	394.5339660644531	1103.183715820312	-204.9092712402344	413.8873901367188	788.6415405273438	-40.68269348144531	416.7095642089844	869.0077514648438	-133.6781311035156	431.7033996582031	891.7144165039062	-69.74710083007812	-51.07192230224609	1563.536376953125	-42.40312957763672	-114.5029907226562	1488.839599609375	-33.52416229248047	-135.4337768554688	1195.881591796875	-55.531494140625	-44.59637069702148	1197.217041015625	-94.09323883056641	-70.91802978515625	947.720947265625	65.3741455078125	-128.2019958496094	933.8680419921875	3.736596822738647	-141.2442779541016	1122.796020507812	-30.76405143737793	-45.14063262939453	752.6302490234375	74.11838531494141	-65.44891357421875	838.2010498046875	88.86300659179688	-115.8883590698242	832.2908325195312	35.45061874389648	31.31541633605957	1759.820556640625	-97.35483551025391	214.5158386230469	1817.930786132812	12.32482051849365	94.60137939453125	1812.19287109375	62.33443069458008	153.7146759033203	1770.825927734375	-154.4693145751953	268.1603088378906	1020.815551757812	-191.6300506591797	-8.281725883483887	1017.504577636719	45.13070678710938	79.06858825683594	1087.190551757812	79.02991485595703	293.8586120605469	1084.33984375	-75.05055999755859	277.7637023925781	506.6573181152344	-168.2798614501953	278.688232421875	661.1368408203125	-190.3843383789062	36.95573425292969	161.6469268798828	-508.5351257324219	162.9943237304688	358.7613830566406	-371.5579223632812	79.46871948242188	28.27619552612305	-341.2016906738281	24.76005363464355	70.69086456298828	-366.3477783203125	91.68257904052734	63.00110244750977	-460.3126220703125	-32.9780387878418	222.8668212890625	-505.3039855957031	107.6082458496094	534.6445922851562	77.86968231201172	37.0596809387207	806.6954956054688	80.88139343261719	165.7187194824219	24.39909172058105	12.37796020507812	109.2258834838867	397.9140319824219	73.75892639160156	301.7613525390625	46.93384170532227	204.9720306396484	318.1622619628906	39.71313095092773	133.2947692871094	197.5205993652344	40.62488174438477	143.3930511474609	187.9461364746094	27.72315788269043	-58.07629776000977	
